<svg width="90" height="24" viewBox="0 0 90 24" fill="none" xmlns="http://www.w3.org/2000/svg">
<g clip-path="url(#clip0_13_59)">
<path d="M36.9093 14.9776L33.477 6.68976H31.5536L36.1259 17.2475L36.153 17.312H37.6638L42.2633 6.68976H40.3399L36.9093 14.9776Z" fill="white"/>
<path d="M51.7571 12.5285C51.7571 14.4903 50.4092 15.9128 48.5528 15.9128C46.1698 15.9128 45.6686 14.0496 45.6686 12.4855V6.68796H43.7869V12.7596C43.7869 15.6333 45.4967 17.5629 48.0389 17.5629C49.756 17.5629 51.1076 16.8641 51.8205 15.6279V17.3084H53.6371V6.68617H51.7553V12.5267L51.7571 12.5285Z" fill="white"/>
<path d="M61.4771 6.43535C58.2854 6.43535 55.8789 8.82711 55.8789 12C55.8789 15.1729 58.2166 17.5646 61.564 17.5646C63.842 17.5646 65.8757 16.3446 66.7478 14.4563L66.8166 14.3058H65.0072L64.9764 14.3559C64.3124 15.4219 62.997 16.083 61.5422 16.083C59.4542 16.083 58.0465 14.8522 57.7534 12.7847H66.9903V11.8961C66.9903 8.68199 64.7231 6.43714 61.4771 6.43714V6.43535ZM65.2062 11.3013H57.7299C57.9796 9.24634 59.4814 7.87578 61.4988 7.87578C63.5163 7.87578 64.9855 9.21588 65.2062 11.3013Z" fill="white"/>
<path d="M70.2797 15.0672C69.5614 15.0672 69.0186 15.5867 69.0186 16.2747C69.0186 16.9627 69.5614 17.4804 70.2797 17.4804C70.998 17.4804 71.5408 16.9609 71.5408 16.2747C71.5408 15.5885 70.998 15.0672 70.2797 15.0672Z" fill="white"/>
<path d="M83.2275 8.50641C82.5309 7.45117 81.0001 6.43535 78.9537 6.43535C75.5159 6.43535 73.4623 9.26425 73.4623 12C73.4623 14.7357 75.5159 17.5646 78.9537 17.5646C80.9477 17.5646 82.4892 16.5649 83.2474 15.4828V17.3102H85.064V6.68796H83.2257V8.50462L83.2275 8.50641ZM83.184 12C83.184 14.596 81.1485 15.9988 79.2324 15.9988C76.9797 15.9988 75.344 14.3165 75.344 12C75.344 9.68348 76.9797 8.00298 79.2324 8.00298C81.1485 8.00298 83.184 9.404 83.184 12Z" fill="white"/>
<path d="M90 6.68976H88.1183V17.312H90V6.68976Z" fill="white"/>
<path d="M10.697 0.0806748C10.4708 -0.0339863 10.1958 -0.0250283 9.97869 0.102174L0.768983 5.51633C0.294928 5.79581 0 6.30641 0 6.84747V17.1526C0 17.6937 0.294928 18.2025 0.770793 18.4838L9.97869 23.8979C10.0945 23.966 10.2266 24.0001 10.3587 24.0001C10.4745 24.0001 10.5921 23.9732 10.6988 23.9194C10.925 23.8048 11.0643 23.5862 11.0643 23.3479V0.652189C11.0643 0.413909 10.9232 0.195336 10.6988 0.0806748H10.697ZM9.65119 22.1601L1.52892 17.3837C1.45835 17.3425 1.41131 17.2494 1.41131 17.1526V14.9866L9.65119 19.4315V22.1601ZM9.65119 13.6626L6.5825 12.0054L9.65119 10.35V13.6626ZM9.65119 8.83971L4.82741 11.4429C4.61028 11.5593 4.4782 11.7743 4.4782 12.0054C4.4782 12.2365 4.61028 12.4515 4.82741 12.568L9.65119 15.1729V17.9212L1.41131 13.4763V10.5292L9.65119 6.08426V8.83792V8.83971ZM9.65119 4.57396L1.41131 9.01887V6.84747C1.41131 6.75073 1.45835 6.65756 1.52711 6.61636L9.65119 1.84001V4.57217V4.57396ZM24.0212 5.51633L14.8133 0.102174C14.5962 -0.0250283 14.3212 -0.0339863 14.095 0.0806748C13.8688 0.195336 13.7295 0.413909 13.7295 0.652189V23.3479C13.7295 23.5862 13.8706 23.8048 14.095 23.9194C14.2018 23.9732 14.3176 24.0001 14.4352 24.0001C14.5673 24.0001 14.6993 23.966 14.8151 23.8979L24.023 18.4838C24.4971 18.2043 24.792 17.6937 24.792 17.1526V6.84747C24.792 6.30641 24.4971 5.79761 24.0212 5.51633ZM15.139 10.3393L18.2077 11.9965L15.139 13.6519V10.3393ZM23.3789 17.1544C23.3789 17.2512 23.3319 17.3443 23.2631 17.3855L15.1408 22.1619V19.4297L23.3807 14.9848V17.1562L23.3789 17.1544ZM23.3789 13.4727L15.139 17.9176V15.164L19.9628 12.5608C20.1799 12.4444 20.312 12.2294 20.312 11.9983C20.312 11.7671 20.1799 11.5522 19.9628 11.4357L15.139 8.82896V6.08067L23.3789 10.5256V13.4727ZM23.3789 9.01528L15.139 4.57037V1.8418L23.2613 6.61815C23.3319 6.65935 23.3789 6.75252 23.3789 6.84926V9.01528Z" fill="white"/>
</g>
<defs>
<clipPath id="clip0_13_59">
<rect width="90" height="24" fill="white"/>
</clipPath>
</defs>
</svg>
